<?xml version="1.0" encoding="UTF-8"?>
<svg width="20px" height="20px" viewBox="0 0 20 20" version="1.1" xmlns="http://www.w3.org/2000/svg" xmlns:xlink="http://www.w3.org/1999/xlink">
    <title>sygnetMini</title>
    <defs>
        <path d="M10.000277,1.21621622 C11.86939,1.21621622 13.8052571,1.28452629 15.5408621,1.42114642 C17.8104993,1.62607663 19.6796123,3.40213842 19.8798744,5.79299083 L19.9033174,6.20572741 L19.92757,6.72974981 C19.9515738,7.30449465 19.9757171,8.60906719 20,10.6434675 L19.9874927,11.3031956 C19.9627784,12.4558699 19.9251679,13.48877 19.8798744,14.207184 C19.6796123,16.5980364 17.8104993,18.3740982 15.5408621,18.5790284 C13.9630394,18.7032286 12.2197108,18.7709741 10.5114896,18.782265 L9.99606918,18.7837838 C8.12695615,18.7837838 6.19108909,18.7154737 4.45548414,18.5788536 C2.18584689,18.3739234 0.316733869,16.5978616 0.116471759,14.2070092 L0.0930288223,13.7942726 L0.0762584932,13.4437024 C0.0437216318,12.7135877 0.0173639202,11.8154681 0,10.8544725 L0,9.14570233 L0.0134320231,8.49136383 C0.0381007954,7.42187522 0.0738911484,6.46854969 0.116471759,5.79316568 C0.316733869,3.40231327 2.18584689,1.62625148 4.45548414,1.42132127 C6.03330682,1.29712115 7.77663538,1.22937563 9.48485663,1.21808471 L10.000277,1.21621622 Z M9.99342239,4.59459459 L9.38301166,4.59731567 L8.79301204,4.6053254 C7.41745138,4.62970283 6.05105139,4.69389673 4.72373699,4.79790711 C3.99027597,4.86583225 3.45684977,5.40923339 3.3901715,6.08848481 L3.36762126,6.3322658 C3.30628215,7.05826559 3.26645367,8.07667977 3.24324324,9.19562148 L3.24324324,10.8043785 L3.25797525,11.4179649 C3.28551708,12.419034 3.32826489,13.3018941 3.3901715,13.9115152 C3.45684977,14.5907666 3.99027597,15.1341677 4.72373699,15.2020929 C6.05105139,15.3061033 7.41745138,15.3702972 8.79301204,15.3946746 L9.38301166,15.4026843 L10.0338376,15.4054054 L10.6038328,15.4028582 C12.1781954,15.3879996 13.7461767,15.3211358 15.2631074,15.2022668 C15.9965685,15.1343416 16.5299947,14.5909405 16.5966729,13.9116891 L16.6192232,13.6679081 C16.6943082,12.7792139 16.7371614,11.4523621 16.7567568,10.0393121 L16.7436012,9.19544761 L16.7288692,8.58186127 C16.7013273,7.58079211 16.6585795,6.69793202 16.5966729,6.08831094 C16.5299947,5.40905952 15.9965685,4.86565838 15.2631074,4.79773324 C13.935793,4.69372287 12.569393,4.62952897 11.1938324,4.60515153 L10.6038328,4.59714181 L9.99342239,4.59459459 Z" id="path-1"></path>
    </defs>
    <g id="sygnetMini" stroke="none" stroke-width="1" fill="none" fill-rule="evenodd">
        <mask id="mask-2" fill="white">
            <use xlink:href="#path-1"></use>
        </mask>
        <use id="Mask" fill="#A7AAAD" fill-rule="nonzero" xlink:href="#path-1"></use>
    </g>
</svg>