<?xml version="1.0" encoding="UTF-8"?>
<svg width="50px" height="50px" viewBox="0 0 50 50" version="1.1" xmlns="http://www.w3.org/2000/svg" xmlns:xlink="http://www.w3.org/1999/xlink">
    <title>plug</title>
    <g id="plug" stroke="none" stroke-width="1" fill="none" fill-rule="evenodd">
        <rect id="Rectangle" fill="#E8E8E8" x="0" y="0" width="50" height="50" rx="25"></rect>
        <path d="M33.0606602,10.9393398 C33.6464466,11.5251263 33.6464466,12.4748737 33.0606602,13.0606602 L29.121,17 L33,20.879 L36.9393398,16.9393398 C37.5251263,16.3535534 38.4748737,16.3535534 39.0606602,16.9393398 C39.6464466,17.5251263 39.6464466,18.4748737 39.0606602,19.0606602 L35.121,23 L38.0606602,25.9393398 C38.6464466,26.5251263 38.6464466,27.4748737 38.0606602,28.0606602 C37.4748737,28.6464466 36.5251263,28.6464466 35.9393398,28.0606602 L35.5,27.621 L29.3876959,33.7336205 C28.3579906,34.76729 26.959029,35.3483338 25.5,35.3483338 C24.040971,35.3483338 22.6420094,34.76729 21.6143398,33.7356602 L20,32.121 L14.0606602,38.0606602 C13.4748737,38.6464466 12.5251263,38.6464466 11.9393398,38.0606602 C11.3535534,37.4748737 11.3535534,36.5251263 11.9393398,35.9393398 L17.879,30 L16.2663795,28.3876959 C15.23271,27.3579906 14.6516662,25.959029 14.6516662,24.5 C14.6516662,23.040971 15.23271,21.6420094 16.2643398,20.6143398 L22.379,14.5 L21.9393398,14.0606602 C21.3535534,13.4748737 21.3535534,12.5251263 21.9393398,11.9393398 C22.5251263,11.3535534 23.4748737,11.3535534 24.0606602,11.9393398 L27,14.879 L30.9393398,10.9393398 C31.5251263,10.3535534 32.4748737,10.3535534 33.0606602,10.9393398 Z M24.5,16.621 L18.3836205,22.7376959 C17.9150551,23.2044644 17.6516662,23.8386178 17.6516662,24.5 C17.6516662,25.1613822 17.9150551,25.7955356 18.3856602,26.2643398 L23.7376959,31.6163795 C24.2044644,32.0849449 24.8386178,32.3483338 25.5,32.3483338 C26.1613822,32.3483338 26.7955356,32.0849449 27.2643398,31.6143398 L33.379,25.5 L24.5,16.621 Z" id="Shape" fill="#000000" fill-rule="nonzero"></path>
    </g>
</svg>